{
  "accessors": [
    {
      "bufferView": 1,
      "componentType": 5126,
      "count": 65532,
      "max": [
        141.53125,
        18.75,
        4.7699995040893555
      ],
      "min": [
        118.0,
        0.0,
        0.5240001678466797
      ],
      "type": "VEC3"
    },
    {
      "bufferView": 1,
      "byteOffset": 786384,
      "componentType": 5126,
      "count": 65532,
      "max": [
        0.9962032437324524,
        1.0,
        1.0
      ],
      "min": [
        -0.9989031553268433,
        -1.0,
        -0.5039088129997253
      ],
      "type": "VEC3"
    },
    {
      "bufferView": 2,
      "componentType": 5126,
      "count": 65532,
      "max": [
        0.4431372582912445,
        0.501960813999176,
        0.4156862795352936,
        1.0
      ],
      "min": [
        0.10980392247438431,
        0.13333334028720856,
        0.16078431904315948,
        1.0
      ],
      "type": "VEC4"
    },
    {
      "bufferView": 0,
      "componentType": 5125,
      "count": 143853,
      "type": "SCALAR"
    },
    {
      "bufferView": 1,
      "byteOffset": 1572768,
      "componentType": 5126,
      "count": 65532,
      "max": [
        141.53125,
        29.75,
        2.2220001220703125
      ],
      "min": [
        118.46875,
        7.75,
        0.3279991149902344
      ],
      "type": "VEC3"
    },
    {
      "bufferView": 1,
      "byteOffset": 2359152,
      "componentType": 5126,
      "count": 65532,
      "max": [
        0.9998779296875,
        1.0,
        1.0
      ],
      "min": [
        -0.9999036192893982,
        -1.0,
        -0.43568655848503113
      ],
      "type": "VEC3"
    },
    {
      "bufferView": 2,
      "byteOffset": 1048512,
      "componentType": 5126,
      "count": 65532,
      "max": [
        0.32549020648002625,
        0.47843137383461,
        0.37254902720451355,
        1.0
      ],
      "min": [
        0.12156862765550613,
        0.18431372940540314,
        0.2078431397676468,
        1.0
      ],
      "type": "VEC4"
    },
    {
      "bufferView": 0,
      "byteOffset": 575412,
      "componentType": 5125,
      "count": 152913,
      "type": "SCALAR"
    },
    {
      "bufferView": 1,
      "byteOffset": 3145536,
      "componentType": 5126,
      "count": 65532,
      "max": [
        128.875,
        29.75,
        1.8899993896484375
      ],
      "min": [
        100.3125,
        18.0,
        0.37399864196777344
      ],
      "type": "VEC3"
    },
    {
      "bufferView": 1,
      "byteOffset": 3931920,
      "componentType": 5126,
      "count": 65532,
      "max": [
        0.9946205019950867,
        1.0,
        1.0
      ],
      "min": [
        -0.9894779324531555,
        -1.0,
        0.0
      ],
      "type": "VEC3"
    },
    {
      "bufferView": 2,
      "byteOffset": 2097024,
      "componentType": 5126,
      "count": 65532,
      "max": [
        0.4274509847164154,
        0.501960813999176,
        0.4117647111415863,
        1.0
      ],
      "min": [
        0.12941177189350128,
        0.18431372940540314,
        0.20392157137393951,
        1.0
      ],
      "type": "VEC4"
    },
    {
      "bufferView": 0,
      "byteOffset": 1187064,
      "componentType": 5125,
      "count": 157758,
      "type": "SCALAR"
    },
    {
      "bufferView": 1,
      "byteOffset": 4718304,
      "componentType": 5126,
      "count": 65532,
      "max": [
        119.90625,
        22.75,
        2.651998519897461
      ],
      "min": [
        100.3125,
        0.0,
        0.40799903869628906
      ],
      "type": "VEC3"
    },
    {
      "bufferView": 1,
      "byteOffset": 5504688,
      "componentType": 5126,
      "count": 65532,
      "max": [
        0.9937968850135803,
        1.0,
        1.0
      ],
      "min": [
        -0.989971399307251,
        -1.0,
        -0.8532251715660095
      ],
      "type": "VEC3"
    },
    {
      "bufferView": 2,
      "byteOffset": 3145536,
      "componentType": 5126,
      "count": 65532,
      "max": [
        0.3921568691730499,
        0.5568627715110779,
        0.4470588266849518,
        1.0
      ],
      "min": [
        0.1411764770746231,
        0.18039216101169586,
        0.1882352977991104,
        1.0
      ],
      "type": "VEC4"
    },
    {
      "bufferView": 0,
      "byteOffset": 1818096,
      "componentType": 5125,
      "count": 149187,
      "type": "SCALAR"
    },
    {
      "bufferView": 1,
      "byteOffset": 6291072,
      "componentType": 5126,
      "count": 65532,
      "max": [
        109.53125,
        17.0,
        3.2419986724853516
      ],
      "min": [
        84.25,
        0.0,
        0.4139995574951172
      ],
      "type": "VEC3"
    },
    {
      "bufferView": 1,
      "byteOffset": 7077456,
      "componentType": 5126,
      "count": 65532,
      "max": [
        0.9907469153404236,
        1.0,
        1.0
      ],
      "min": [
        -0.9866338968276978,
        -1.0,
        -0.7267361879348755
      ],
      "type": "VEC3"
    },
    {
      "bufferView": 2,
      "byteOffset": 4194048,
      "componentType": 5126,
      "count": 65532,
      "max": [
        0.4313725531101227,
        0.5098039507865906,
        0.38823530077934265,
        1.0
      ],
      "min": [
        0.11372549086809158,
        0.13333334028720856,
        0.16078431904315948,
        1.0
      ],
      "type": "VEC4"
    },
    {
      "bufferView": 0,
      "byteOffset": 2414844,
      "componentType": 5125,
      "count": 152199,
      "type": "SCALAR"
    },
    {
      "bufferView": 1,
      "byteOffset": 7863840,
      "componentType": 5126,
      "count": 65534,
      "max": [
        93.4375,
        17.25,
        3.147998809814453
      ],
      "min": [
        70.0,
        0.0,
        0.6359996795654297
      ],
      "type": "VEC3"
    },
    {
      "bufferView": 1,
      "byteOffset": 8650248,
      "componentType": 5126,
      "count": 65534,
      "max": [
        0.9855444431304932,
        1.0,
        1.0
      ],
      "min": [
        -0.9963139891624451,
        -1.0,
        -0.9990769624710083
      ],
      "type": "VEC3"
    },
    {
      "bufferView": 2,
      "byteOffset": 5242560,
      "componentType": 5126,
      "count": 65534,
      "max": [
        0.4941176474094391,
        0.5254902243614197,
        0.4117647111415863,
        1.0
      ],
      "min": [
        0.10980392247438431,
        0.12941177189350128,
        0.1411764770746231,
        1.0
      ],
      "type": "VEC4"
    },
    {
      "bufferView": 0,
      "byteOffset": 3023640,
      "componentType": 5125,
      "count": 156177,
      "type": "SCALAR"
    },
    {
      "bufferView": 1,
      "byteOffset": 9436656,
      "componentType": 5126,
      "count": 65532,
      "max": [
        88.875,
        29.5,
        3.434000015258789
      ],
      "min": [
        68.0,
        9.75,
        0.8540000915527344
      ],
      "type": "VEC3"
    },
    {
      "bufferView": 1,
      "byteOffset": 10223040,
      "componentType": 5126,
      "count": 65532,
      "max": [
        0.9933080673217773,
        1.0,
        1.0
      ],
      "min": [
        -0.9921897649765015,
        -1.0,
        0.0
      ],
      "type": "VEC3"
    },
    {
      "bufferView": 2,
      "byteOffset": 6291104,
      "componentType": 5126,
      "count": 65532,
      "max": [
        0.7529411911964417,
        0.6941176652908325,
        0.5803921818733215,
        1.0
      ],
      "min": [
        0.11372549086809158,
        0.12156862765550613,
        0.13725490868091583,
        1.0
      ],
      "type": "VEC4"
    },
    {
      "bufferView": 0,
      "byteOffset": 3648348,
      "componentType": 5125,
      "count": 157674,
      "type": "SCALAR"
    },
    {
      "bufferView": 1,
      "byteOffset": 11009424,
      "componentType": 5126,
      "count": 65533,
      "max": [
        102.25,
        29.25,
        2.795999526977539
      ],
      "min": [
        79.03125,
        16.5,
        0.5839996337890625
      ],
      "type": "VEC3"
    },
    {
      "bufferView": 1,
      "byteOffset": 11795820,
      "componentType": 5126,
      "count": 65533,
      "max": [
        0.9962206482887268,
        1.0,
        0.9999940991401672
      ],
      "min": [
        -0.9955673813819885,
        -1.0,
        0.0
      ],
      "type": "VEC3"
    },
    {
      "bufferView": 2,
      "byteOffset": 7339616,
      "componentType": 5126,
      "count": 65533,
      "max": [
        0.5568627715110779,
        0.5960784554481506,
        0.4941176474094391,
        1.0
      ],
      "min": [
        0.11764705926179886,
        0.1411764770746231,
        0.1725490242242813,
        1.0
      ],
      "type": "VEC4"
    },
    {
      "bufferView": 0,
      "byteOffset": 4279044,
      "componentType": 5125,
      "count": 158436,
      "type": "SCALAR"
    },
    {
      "bufferView": 1,
      "byteOffset": 12582216,
      "componentType": 5126,
      "count": 65534,
      "max": [
        108.46875,
        40.0,
        3.351999282836914
      ],
      "min": [
        87.28125,
        23.0,
        0.7959995269775391
      ],
      "type": "VEC3"
    },
    {
      "bufferView": 1,
      "byteOffset": 13368624,
      "componentType": 5126,
      "count": 65534,
      "max": [
        0.9982436895370483,
        1.0,
        1.0
      ],
      "min": [
        -0.9958454370498657,
        -1.0,
        0.0
      ],
      "type": "VEC3"
    },
    {
      "bufferView": 2,
      "byteOffset": 8388144,
      "componentType": 5126,
      "count": 65534,
      "max": [
        0.5960784554481506,
        0.615686297416687,
        0.5215686559677124,
        1.0
      ],
      "min": [
        0.09803921729326248,
        0.12941177189350128,
        0.15294118225574493,
        1.0
      ],
      "type": "VEC4"
    },
    {
      "bufferView": 0,
      "byteOffset": 4912788,
      "componentType": 5125,
      "count": 161694,
      "type": "SCALAR"
    },
    {
      "bufferView": 1,
      "byteOffset": 14155032,
      "componentType": 5126,
      "count": 65532,
      "max": [
        97.84375,
        40.25,
        3.551999092102051
      ],
      "min": [
        68.96875,
        29.0,
        0.8719997406005859
      ],
      "type": "VEC3"
    },
    {
      "bufferView": 1,
      "byteOffset": 14941416,
      "componentType": 5126,
      "count": 65532,
      "max": [
        0.9965605139732361,
        1.0,
        1.0
      ],
      "min": [
        -0.9969797134399414,
        -1.0,
        0.0
      ],
      "type": "VEC3"
    },
    {
      "bufferView": 2,
      "byteOffset": 9436688,
      "componentType": 5126,
      "count": 65532,
      "max": [
        0.7333333492279053,
        0.7372549176216125,
        0.6039215922355652,
        1.0
      ],
      "min": [
        0.10980392247438431,
        0.11372549086809158,
        0.1411764770746231,
        1.0
      ],
      "type": "VEC4"
    },
    {
      "bufferView": 0,
      "byteOffset": 5559564,
      "componentType": 5125,
      "count": 158580,
      "type": "SCALAR"
    },
    {
      "bufferView": 1,
      "byteOffset": 15727800,
      "componentType": 5126,
      "count": 65534,
      "max": [
        90.71875,
        50.0,
        3.7119998931884766
      ],
      "min": [
        69.28125,
        34.5,
        0.9039993286132813
      ],
      "type": "VEC3"
    },
    {
      "bufferView": 1,
      "byteOffset": 16514208,
      "componentType": 5126,
      "count": 65534,
      "max": [
        0.9973255395889282,
        1.0,
        1.0
      ],
      "min": [
        -0.999251127243042,
        -1.0,
        0.0
      ],
      "type": "VEC3"
    },
    {
      "bufferView": 2,
      "byteOffset": 10485200,
      "componentType": 5126,
      "count": 65534,
      "max": [
        0.7568627595901489,
        0.7176470756530762,
        0.5803921818733215,
        1.0
      ],
      "min": [
        0.10980392247438431,
        0.125490203499794,
        0.1411764770746231,
        1.0
      ],
      "type": "VEC4"
    },
    {
      "bufferView": 0,
      "byteOffset": 6193884,
      "componentType": 5125,
      "count": 166302,
      "type": "SCALAR"
    },
    {
      "bufferView": 1,
      "byteOffset": 17300616,
      "componentType": 5126,
      "count": 65534,
      "max": [
        107.6875,
        50.25,
        4.039999008178711
      ],
      "min": [
        82.09375,
        39.75,
        0.7339992523193359
      ],
      "type": "VEC3"
    },
    {
      "bufferView": 1,
      "byteOffset": 18087024,
      "componentType": 5126,
      "count": 65534,
      "max": [
        0.9987697601318359,
        1.0,
        1.0
      ],
      "min": [
        -0.9987782835960388,
        -1.0,
        0.0
      ],
      "type": "VEC3"
    },
    {
      "bufferView": 2,
      "byteOffset": 11533744,
      "componentType": 5126,
      "count": 65534,
      "max": [
        0.7372549176216125,
        0.7215686440467834,
        0.5607843399047852,
        1.0
      ],
      "min": [
        0.0941176488995552,
        0.12156862765550613,
        0.14901961386203766,
        1.0
      ],
      "type": "VEC4"
    },
    {
      "bufferView": 0,
      "byteOffset": 6859092,
      "componentType": 5125,
      "count": 164241,
      "type": "SCALAR"
    },
    {
      "bufferView": 1,
      "byteOffset": 18873432,
      "componentType": 5126,
      "count": 65533,
      "max": [
        124.46875,
        50.5,
        2.657999038696289
      ],
      "min": [
        97.125,
        39.25,
        0.5819988250732422
      ],
      "type": "VEC3"
    },
    {
      "bufferView": 1,
      "byteOffset": 19659828,
      "componentType": 5126,
      "count": 65533,
      "max": [
        0.9951125979423523,
        1.0,
        1.0
      ],
      "min": [
        -0.9988815188407898,
        -1.0,
        0.0
      ],
      "type": "VEC3"
    },
    {
      "bufferView": 2,
      "byteOffset": 12582288,
      "componentType": 5126,
      "count": 65533,
      "max": [
        0.4941176474094391,
        0.6470588445663452,
        0.529411792755127,
        1.0
      ],
      "min": [
        0.09803921729326248,
        0.14901961386203766,
        0.20000000298023224,
        1.0
      ],
      "type": "VEC4"
    },
    {
      "bufferView": 0,
      "byteOffset": 7516056,
      "componentType": 5125,
      "count": 160776,
      "type": "SCALAR"
    },
    {
      "bufferView": 1,
      "byteOffset": 20446224,
      "componentType": 5126,
      "count": 65534,
      "max": [
        125.375,
        44.75,
        2.2320003509521484
      ],
      "min": [
        106.09375,
        29.0,
        0.58599853515625
      ],
      "type": "VEC3"
    },
    {
      "bufferView": 1,
      "byteOffset": 21232632,
      "componentType": 5126,
      "count": 65534,
      "max": [
        0.9936308860778809,
        1.0,
        1.0
      ],
      "min": [
        -0.9904029965400696,
        -1.0,
        0.0
      ],
      "type": "VEC3"
    },
    {
      "bufferView": 2,
      "byteOffset": 13630816,
      "componentType": 5126,
      "count": 65534,
      "max": [
        0.4745098054409027,
        0.5490196347236633,
        0.45098039507865906,
        1.0
      ],
      "min": [
        0.11372549086809158,
        0.1725490242242813,
        0.21568627655506134,
        1.0
      ],
      "type": "VEC4"
    },
    {
      "bufferView": 0,
      "byteOffset": 8159160,
      "componentType": 5125,
      "count": 156843,
      "type": "SCALAR"
    },
    {
      "bufferView": 1,
      "byteOffset": 22019040,
      "componentType": 5126,
      "count": 65532,
      "max": [
        141.53125,
        40.0,
        1.983999252319336
      ],
      "min": [
        117.6875,
        29.0,
        0.07199859619140625
      ],
      "type": "VEC3"
    },
    {
      "bufferView": 1,
      "byteOffset": 22805424,
      "componentType": 5126,
      "count": 65532,
      "max": [
        0.992277979850769,
        1.0,
        1.0
      ],
      "min": [
        -0.9980526566505432,
        -1.0,
        0.0
      ],
      "type": "VEC3"
    },
    {
      "bufferView": 2,
      "byteOffset": 14679360,
      "componentType": 5126,
      "count": 65532,
      "max": [
        0.3176470696926117,
        0.45490196347236633,
        0.3960784375667572,
        1.0
      ],
      "min": [
        0.11764705926179886,
        0.18431372940540314,
        0.21176470816135406,
        1.0
      ],
      "type": "VEC4"
    },
    {
      "bufferView": 0,
      "byteOffset": 8786532,
      "componentType": 5125,
      "count": 154509,
      "type": "SCALAR"
    },
    {
      "bufferView": 1,
      "byteOffset": 23591808,
      "componentType": 5126,
      "count": 65533,
      "max": [
        141.53125,
        50.0,
        2.1140003204345703
      ],
      "min": [
        122.71875,
        37.25,
        0.10999870300292969
      ],
      "type": "VEC3"
    },
    {
      "bufferView": 1,
      "byteOffset": 24378204,
      "componentType": 5126,
      "count": 65533,
      "max": [
        0.9971993565559387,
        1.0,
        1.0
      ],
      "min": [
        -0.9935394525527954,
        -1.0,
        0.0
      ],
      "type": "VEC3"
    },
    {
      "bufferView": 2,
      "byteOffset": 15727872,
      "componentType": 5126,
      "count": 65533,
      "max": [
        0.3490196168422699,
        0.5058823823928833,
        0.45098039507865906,
        1.0
      ],
      "min": [
        0.11764705926179886,
        0.21960784494876862,
        0.21960784494876862,
        1.0
      ],
      "type": "VEC4"
    },
    {
      "bufferView": 0,
      "byteOffset": 9404568,
      "componentType": 5125,
      "count": 153720,
      "type": "SCALAR"
    },
    {
      "bufferView": 1,
      "byteOffset": 25164600,
      "componentType": 5126,
      "count": 65532,
      "max": [
        141.53125,
        60.0,
        2.9399986267089844
      ],
      "min": [
        120.15625,
        47.5,
        0.5979995727539063
      ],
      "type": "VEC3"
    },
    {
      "bufferView": 1,
      "byteOffset": 25950984,
      "componentType": 5126,
      "count": 65532,
      "max": [
        0.985740602016449,
        1.0,
        1.0
      ],
      "min": [
        -0.9982312917709351,
        -1.0,
        0.0
      ],
      "type": "VEC3"
    },
    {
      "bufferView": 2,
      "byteOffset": 16776400,
      "componentType": 5126,
      "count": 65532,
      "max": [
        0.42352941632270813,
        0.529411792755127,
        0.43921568989753723,
        1.0
      ],
      "min": [
        0.10196078568696976,
        0.19607843458652496,
        0.23529411852359772,
        1.0
      ],
      "type": "VEC4"
    },
    {
      "bufferView": 0,
      "byteOffset": 10019448,
      "componentType": 5125,
      "count": 154620,
      "type": "SCALAR"
    },
    {
      "bufferView": 1,
      "byteOffset": 26737368,
      "componentType": 5126,
      "count": 65532,
      "max": [
        127.90625,
        59.5,
        2.9919986724853516
      ],
      "min": [
        101.375,
        49.75,
        0.8279991149902344
      ],
      "type": "VEC3"
    },
    {
      "bufferView": 1,
      "byteOffset": 27523752,
      "componentType": 5126,
      "count": 65532,
      "max": [
        0.9937968850135803,
        1.0,
        1.0
      ],
      "min": [
        -0.9894485473632813,
        -1.0,
        0.0
      ],
      "type": "VEC3"
    },
    {
      "bufferView": 2,
      "byteOffset": 17824912,
      "componentType": 5126,
      "count": 65532,
      "max": [
        0.5176470875740051,
        0.5764706134796143,
        0.5176470875740051,
        1.0
      ],
      "min": [
        0.11764705926179886,
        0.20392157137393951,
        0.23137255012989044,
        1.0
      ],
      "type": "VEC4"
    },
    {
      "bufferView": 0,
      "byteOffset": 10637928,
      "componentType": 5125,
      "count": 164145,
      "type": "SCALAR"
    },
    {
      "bufferView": 1,
      "byteOffset": 28310136,
      "componentType": 5126,
      "count": 65532,
      "max": [
        128.3125,
        69.25,
        6.733999252319336
      ],
      "min": [
        102.15625,
        58.25,
        1.8499984741210938
      ],
      "type": "VEC3"
    },
    {
      "bufferView": 1,
      "byteOffset": 29096520,
      "componentType": 5126,
      "count": 65532,
      "max": [
        0.9963952302932739,
        1.0,
        1.0
      ],
      "min": [
        -0.9962533116340637,
        -1.0,
        0.0
      ],
      "type": "VEC3"
    },
    {
      "bufferView": 2,
      "byteOffset": 18873424,
      "componentType": 5126,
      "count": 65532,
      "max": [
        1.0,
        0.9686274528503418,
        0.929411768913269,
        1.0
      ],
      "min": [
        0.06666667014360428,
        0.06666667014360428,
        0.04313725605607033,
        1.0
      ],
      "type": "VEC4"
    },
    {
      "bufferView": 0,
      "byteOffset": 11294508,
      "componentType": 5125,
      "count": 175134,
      "type": "SCALAR"
    },
    {
      "bufferView": 1,
      "byteOffset": 29882904,
      "componentType": 5126,
      "count": 65532,
      "max": [
        141.53125,
        77.75,
        5.22599983215332
      ],
      "min": [
        121.84375,
        59.25,
        0.305999755859375
      ],
      "type": "VEC3"
    },
    {
      "bufferView": 1,
      "byteOffset": 30669288,
      "componentType": 5126,
      "count": 65532,
      "max": [
        0.9971742630004883,
        1.0,
        1.0
      ],
      "min": [
        -1.0,
        -1.0,
        0.0
      ],
      "type": "VEC3"
    },
    {
      "bufferView": 2,
      "byteOffset": 19921936,
      "componentType": 5126,
      "count": 65532,
      "max": [
        0.7176470756530762,
        0.6274510025978088,
        0.5529412031173706,
        1.0
      ],
      "min": [
        0.08235294371843338,
        0.11764705926179886,
        0.1411764770746231,
        1.0
      ],
      "type": "VEC4"
    },
    {
      "bufferView": 0,
      "byteOffset": 11995044,
      "componentType": 5125,
      "count": 157098,
      "type": "SCALAR"
    },
    {
      "bufferView": 1,
      "byteOffset": 31455672,
      "componentType": 5126,
      "count": 65532,
      "max": [
        141.53125,
        81.0,
        8.091999053955078
      ],
      "min": [
        118.46875,
        68.75,
        1.5
      ],
      "type": "VEC3"
    },
    {
      "bufferView": 1,
      "byteOffset": 32242056,
      "componentType": 5126,
      "count": 65532,
      "max": [
        0.9985681176185608,
        1.0,
        1.0
      ],
      "min": [
        -0.9995841979980469,
        -1.0,
        0.0
      ],
      "type": "VEC3"
    },
    {
      "bufferView": 2,
      "byteOffset": 20970448,
      "componentType": 5126,
      "count": 65532,
      "max": [
        1.0,
        0.9803921580314636,
        0.9490196108818054,
        1.0
      ],
      "min": [
        0.03921568766236305,
        0.03921568766236305,
        0.03921568766236305,
        1.0
      ],
      "type": "VEC4"
    },
    {
      "bufferView": 0,
      "byteOffset": 12623436,
      "componentType": 5125,
      "count": 162057,
      "type": "SCALAR"
    },
    {
      "bufferView": 1,
      "byteOffset": 33028440,
      "componentType": 5126,
      "count": 65532,
      "max": [
        141.375,
        93.0,
        8.423999786376953
      ],
      "min": [
        110.5625,
        78.25,
        3.421998977661133
      ],
      "type": "VEC3"
    },
    {
      "bufferView": 1,
      "byteOffset": 33814824,
      "componentType": 5126,
      "count": 65532,
      "max": [
        0.9987523555755615,
        1.0,
        1.0
      ],
      "min": [
        -0.9965457320213318,
        -1.0,
        -0.9298299551010132
      ],
      "type": "VEC3"
    },
    {
      "bufferView": 2,
      "byteOffset": 22018960,
      "componentType": 5126,
      "count": 65532,
      "max": [
        1.0,
        1.0,
        0.9960784316062927,
        1.0
      ],
      "min": [
        0.019607843831181526,
        0.03921568766236305,
        0.0313725508749485,
        1.0
      ],
      "type": "VEC4"
    },
    {
      "bufferView": 0,
      "byteOffset": 13271664,
      "componentType": 5125,
      "count": 163755,
      "type": "SCALAR"
    },
    {
      "bufferView": 1,
      "byteOffset": 34601208,
      "componentType": 5126,
      "count": 65532,
      "max": [
        120.40625,
        93.0,
        8.11199951171875
      ],
      "min": [
        99.59375,
        74.5,
        4.249999046325684
      ],
      "type": "VEC3"
    },
    {
      "bufferView": 1,
      "byteOffset": 35387592,
      "componentType": 5126,
      "count": 65532,
      "max": [
        0.9956772327423096,
        1.0,
        0.9999992847442627
      ],
      "min": [
        -0.9948539137840271,
        -1.0,
        -0.6802204847335815
      ],
      "type": "VEC3"
    },
    {
      "bufferView": 2,
      "byteOffset": 23067472,
      "componentType": 5126,
      "count": 65532,
      "max": [
        1.0,
        1.0,
        0.9960784316062927,
        1.0
      ],
      "min": [
        0.0470588244497776,
        0.04313725605607033,
        0.03529411926865578,
        1.0
      ],
      "type": "VEC4"
    },
    {
      "bufferView": 0,
      "byteOffset": 13926684,
      "componentType": 5125,
      "count": 164802,
      "type": "SCALAR"
    },
    {
      "bufferView": 1,
      "byteOffset": 36173976,
      "componentType": 5126,
      "count": 65532,
      "max": [
        120.0,
        80.5,
        8.241999626159668
      ],
      "min": [
        93.1875,
        69.0,
        1.6180000305175781
      ],
      "type": "VEC3"
    },
    {
      "bufferView": 1,
      "byteOffset": 36960360,
      "componentType": 5126,
      "count": 65532,
      "max": [
        0.9933618903160095,
        1.0,
        1.0
      ],
      "min": [
        -0.9969041347503662,
        -1.0,
        0.0
      ],
      "type": "VEC3"
    },
    {
      "bufferView": 2,
      "byteOffset": 24115984,
      "componentType": 5126,
      "count": 65532,
      "max": [
        1.0,
        0.9921568632125854,
        0.9647058844566345,
        1.0
      ],
      "min": [
        0.027450980618596077,
        0.03921568766236305,
        0.04313725605607033,
        1.0
      ],
      "type": "VEC4"
    },
    {
      "bufferView": 0,
      "byteOffset": 14585892,
      "componentType": 5125,
      "count": 168390,
      "type": "SCALAR"
    },
    {
      "bufferView": 1,
      "byteOffset": 37746744,
      "componentType": 5126,
      "count": 65532,
      "max": [
        104.40625,
        93.0,
        6.983999252319336
      ],
      "min": [
        86.8125,
        71.0,
        1.039999008178711
      ],
      "type": "VEC3"
    },
    {
      "bufferView": 1,
      "byteOffset": 38533128,
      "componentType": 5126,
      "count": 65532,
      "max": [
        0.9983132481575012,
        1.0,
        1.0
      ],
      "min": [
        -0.9991015791893005,
        -1.0,
        0.0
      ],
      "type": "VEC3"
    },
    {
      "bufferView": 2,
      "byteOffset": 25164496,
      "componentType": 5126,
      "count": 65532,
      "max": [
        1.0,
        1.0,
        0.9843137264251709,
        1.0
      ],
      "min": [
        0.10980392247438431,
        0.11372549086809158,
        0.07450980693101883,
        1.0
      ],
      "type": "VEC4"
    },
    {
      "bufferView": 0,
      "byteOffset": 15259452,
      "componentType": 5125,
      "count": 164481,
      "type": "SCALAR"
    },
    {
      "bufferView": 1,
      "byteOffset": 39319512,
      "componentType": 5126,
      "count": 65534,
      "max": [
        104.40625,
        93.0,
        5.5199995040893555
      ],
      "min": [
        77.28125,
        81.75,
        0.4459991455078125
      ],
      "type": "VEC3"
    },
    {
      "bufferView": 1,
      "byteOffset": 40105920,
      "componentType": 5126,
      "count": 65534,
      "max": [
        0.9994270205497742,
        1.0,
        1.0
      ],
      "min": [
        -0.9993450045585632,
        -1.0,
        0.0
      ],
      "type": "VEC3"
    },
    {
      "bufferView": 2,
      "byteOffset": 26213008,
      "componentType": 5126,
      "count": 65534,
      "max": [
        0.8274509906768799,
        0.8156862854957581,
        0.6823529601097107,
        1.0
      ],
      "min": [
        0.11764705926179886,
        0.1411764770746231,
        0.16470588743686676,
        1.0
      ],
      "type": "VEC4"
    },
    {
      "bufferView": 0,
      "byteOffset": 15917376,
      "componentType": 5125,
      "count": 160929,
      "type": "SCALAR"
    },
    {
      "bufferView": 1,
      "byteOffset": 40892328,
      "componentType": 5126,
      "count": 65534,
      "max": [
        87.90625,
        93.0,
        2.746000289916992
      ],
      "min": [
        69.6875,
        76.25,
        0.8540000915527344
      ],
      "type": "VEC3"
    },
    {
      "bufferView": 1,
      "byteOffset": 41678736,
      "componentType": 5126,
      "count": 65534,
      "max": [
        0.989871084690094,
        1.0,
        0.9999836683273315
      ],
      "min": [
        -0.9968675374984741,
        -1.0,
        0.0
      ],
      "type": "VEC3"
    },
    {
      "bufferView": 2,
      "byteOffset": 27261552,
      "componentType": 5126,
      "count": 65534,
      "max": [
        0.4588235318660736,
        0.545098066329956,
        0.43921568989753723,
        1.0
      ],
      "min": [
        0.125490203499794,
        0.1725490242242813,
        0.19607843458652496,
        1.0
      ],
      "type": "VEC4"
    },
    {
      "bufferView": 0,
      "byteOffset": 16561092,
      "componentType": 5125,
      "count": 161367,
      "type": "SCALAR"
    },
    {
      "bufferView": 1,
      "byteOffset": 42465144,
      "componentType": 5126,
      "count": 65532,
      "max": [
        87.90625,
        79.25,
        3.613999366760254
      ],
      "min": [
        69.75,
        60.5,
        1.2519989013671875
      ],
      "type": "VEC3"
    },
    {
      "bufferView": 1,
      "byteOffset": 43251528,
      "componentType": 5126,
      "count": 65532,
      "max": [
        0.9939571619033813,
        1.0,
        1.0
      ],
      "min": [
        -0.9977286458015442,
        -1.0,
        0.0
      ],
      "type": "VEC3"
    },
    {
      "bufferView": 2,
      "byteOffset": 28310096,
      "componentType": 5126,
      "count": 65532,
      "max": [
        0.6784313917160034,
        0.6666666865348816,
        0.5411764979362488,
        1.0
      ],
      "min": [
        0.10588235408067703,
        0.12156862765550613,
        0.15294118225574493,
        1.0
      ],
      "type": "VEC4"
    },
    {
      "bufferView": 0,
      "byteOffset": 17206560,
      "componentType": 5125,
      "count": 162192,
      "type": "SCALAR"
    },
    {
      "bufferView": 1,
      "byteOffset": 44037912,
      "componentType": 5126,
      "count": 65532,
      "max": [
        104.40625,
        71.25,
        4.74799919128418
      ],
      "min": [
        75.375,
        60.25,
        1.4239997863769531
      ],
      "type": "VEC3"
    },
    {
      "bufferView": 1,
      "byteOffset": 44824296,
      "componentType": 5126,
      "count": 65532,
      "max": [
        0.9975470900535583,
        1.0,
        1.0
      ],
      "min": [
        -0.9941381812095642,
        -1.0,
        0.0
      ],
      "type": "VEC3"
    },
    {
      "bufferView": 2,
      "byteOffset": 29358608,
      "componentType": 5126,
      "count": 65532,
      "max": [
        0.8039215803146362,
        0.7176470756530762,
        0.6274510025978088,
        1.0
      ],
      "min": [
        0.10980392247438431,
        0.13333334028720856,
        0.1411764770746231,
        1.0
      ],
      "type": "VEC4"
    },
    {
      "bufferView": 0,
      "byteOffset": 17855328,
      "componentType": 5125,
      "count": 163758,
      "type": "SCALAR"
    },
    {
      "bufferView": 1,
      "byteOffset": 45610680,
      "componentType": 5126,
      "count": 65532,
      "max": [
        104.40625,
        68.5,
        3.687999725341797
      ],
      "min": [
        85.4375,
        52.5,
        1.1439990997314453
      ],
      "type": "VEC3"
    },
    {
      "bufferView": 1,
      "byteOffset": 46397064,
      "componentType": 5126,
      "count": 65532,
      "max": [
        0.9985259175300598,
        1.0,
        0.9999963641166687
      ],
      "min": [
        -0.9990083575248718,
        -1.0,
        0.0
      ],
      "type": "VEC3"
    },
    {
      "bufferView": 2,
      "byteOffset": 30407120,
      "componentType": 5126,
      "count": 65532,
      "max": [
        0.686274528503418,
        0.7058823704719543,
        0.6078431606292725,
        1.0
      ],
      "min": [
        0.10980392247438431,
        0.14509804546833038,
        0.18431372940540314,
        1.0
      ],
      "type": "VEC4"
    },
    {
      "bufferView": 0,
      "byteOffset": 18510360,
      "componentType": 5125,
      "count": 168585,
      "type": "SCALAR"
    },
    {
      "bufferView": 1,
      "byteOffset": 47183448,
      "componentType": 5126,
      "count": 65532,
      "max": [
        104.46875,
        55.25,
        4.441999435424805
      ],
      "min": [
        51.6875,
        0.0,
        0.8519992828369141
      ],
      "type": "VEC3"
    },
    {
      "bufferView": 1,
      "byteOffset": 47969832,
      "componentType": 5126,
      "count": 65532,
      "max": [
        0.9981780648231506,
        1.0,
        1.0
      ],
      "min": [
        -0.9992408752441406,
        -1.0,
        -0.8437620401382446
      ],
      "type": "VEC3"
    },
    {
      "bufferView": 2,
      "byteOffset": 31455632,
      "componentType": 5126,
      "count": 65532,
      "max": [
        0.9764705896377563,
        0.9058823585510254,
        0.8117647171020508,
        1.0
      ],
      "min": [
        0.09803921729326248,
        0.10980392247438431,
        0.11372549086809158,
        1.0
      ],
      "type": "VEC4"
    },
    {
      "bufferView": 0,
      "byteOffset": 19184700,
      "componentType": 5125,
      "count": 160728,
      "type": "SCALAR"
    },
    {
      "bufferView": 1,
      "byteOffset": 48756216,
      "componentType": 5126,
      "count": 65533,
      "max": [
        60.09375,
        16.25,
        5.343999862670898
      ],
      "min": [
        40.0,
        0.0,
        1.2759990692138672
      ],
      "type": "VEC3"
    },
    {
      "bufferView": 1,
      "byteOffset": 49542612,
      "componentType": 5126,
      "count": 65533,
      "max": [
        0.9918087124824524,
        1.0,
        1.0
      ],
      "min": [
        -0.9959492087364197,
        -1.0,
        -0.46813446283340454
      ],
      "type": "VEC3"
    },
    {
      "bufferView": 2,
      "byteOffset": 32504144,
      "componentType": 5126,
      "count": 65533,
      "max": [
        0.9725490212440491,
        0.8980392217636108,
        0.8078431487083435,
        1.0
      ],
      "min": [
        0.06666667014360428,
        0.062745101749897,
        0.07450980693101883,
        1.0
      ],
      "type": "VEC4"
    },
    {
      "bufferView": 0,
      "byteOffset": 19827612,
      "componentType": 5125,
      "count": 158127,
      "type": "SCALAR"
    },
    {
      "bufferView": 1,
      "byteOffset": 50329008,
      "componentType": 5126,
      "count": 65533,
      "max": [
        47.6875,
        21.75,
        3.9659996032714844
      ],
      "min": [
        30.875,
        0.0,
        0.8920001983642578
      ],
      "type": "VEC3"
    },
    {
      "bufferView": 1,
      "byteOffset": 51115404,
      "componentType": 5126,
      "count": 65533,
      "max": [
        0.9917804002761841,
        1.0,
        1.0
      ],
      "min": [
        -0.9919869303703308,
        -1.0,
        -0.8754521012306213
      ],
      "type": "VEC3"
    },
    {
      "bufferView": 2,
      "byteOffset": 33552672,
      "componentType": 5126,
      "count": 65533,
      "max": [
        0.6705882549285889,
        0.6705882549285889,
        0.5490196347236633,
        1.0
      ],
      "min": [
        0.10196078568696976,
        0.11372549086809158,
        0.125490203499794,
        1.0
      ],
      "type": "VEC4"
    },
    {
      "bufferView": 0,
      "byteOffset": 20460120,
      "componentType": 5125,
      "count": 156189,
      "type": "SCALAR"
    },
    {
      "bufferView": 1,
      "byteOffset": 51901800,
      "componentType": 5126,
      "count": 65533,
      "max": [
        47.6875,
        30.75,
        2.642000198364258
      ],
      "min": [
        23.375,
        15.5,
        0.8159999847412109
      ],
      "type": "VEC3"
    },
    {
      "bufferView": 1,
      "byteOffset": 52688196,
      "componentType": 5126,
      "count": 65533,
      "max": [
        0.991977334022522,
        1.0,
        1.0
      ],
      "min": [
        -0.9822977781295776,
        -1.0,
        0.0
      ],
      "type": "VEC3"
    },
    {
      "bufferView": 2,
      "byteOffset": 34601200,
      "componentType": 5126,
      "count": 65533,
      "max": [
        0.4901960790157318,
        0.5803921818733215,
        0.46666666865348816,
        1.0
      ],
      "min": [
        0.12941177189350128,
        0.1725490242242813,
        0.2078431397676468,
        1.0
      ],
      "type": "VEC4"
    },
    {
      "bufferView": 0,
      "byteOffset": 21084876,
      "componentType": 5125,
      "count": 156858,
      "type": "SCALAR"
    },
    {
      "bufferView": 1,
      "byteOffset": 53474592,
      "componentType": 5126,
      "count": 65532,
      "max": [
        33.125,
        31.0,
        2.2740001678466797
      ],
      "min": [
        0.09375,
        6.25,
        0.3659992218017578
      ],
      "type": "VEC3"
    },
    {
      "bufferView": 1,
      "byteOffset": 54260976,
      "componentType": 5126,
      "count": 65532,
      "max": [
        0.9960377216339111,
        1.0,
        1.0
      ],
      "min": [
        -0.9920985698699951,
        -1.0,
        -0.9285973906517029
      ],
      "type": "VEC3"
    },
    {
      "bufferView": 2,
      "byteOffset": 35649728,
      "componentType": 5126,
      "count": 65532,
      "max": [
        0.46666666865348816,
        0.572549045085907,
        0.5176470875740051,
        1.0
      ],
      "min": [
        0.11764705926179886,
        0.19607843458652496,
        0.21960784494876862,
        1.0
      ],
      "type": "VEC4"
    },
    {
      "bufferView": 0,
      "byteOffset": 21712308,
      "componentType": 5125,
      "count": 151974,
      "type": "SCALAR"
    },
    {
      "bufferView": 1,
      "byteOffset": 55047360,
      "componentType": 5126,
      "count": 65532,
      "max": [
        141.53125,
        30.75,
        4.559999465942383
      ],
      "min": [
        0.0,
        0.0,
        0.4160003662109375
      ],
      "type": "VEC3"
    },
    {
      "bufferView": 1,
      "byteOffset": 55833744,
      "componentType": 5126,
      "count": 65532,
      "max": [
        0.9951586723327637,
        1.0,
        1.0
      ],
      "min": [
        -0.998556911945343,
        -1.0,
        -0.9776595830917358
      ],
      "type": "VEC3"
    },
    {
      "bufferView": 2,
      "byteOffset": 36698240,
      "componentType": 5126,
      "count": 65532,
      "max": [
        0.5764706134796143,
        0.6274510025978088,
        0.4901960790157318,
        1.0
      ],
      "min": [
        0.11372549086809158,
        0.125490203499794,
        0.16078431904315948,
        1.0
      ],
      "type": "VEC4"
    },
    {
      "bufferView": 0,
      "byteOffset": 22320204,
      "componentType": 5125,
      "count": 144192,
      "type": "SCALAR"
    },
    {
      "bufferView": 1,
      "byteOffset": 56620128,
      "componentType": 5126,
      "count": 65532,
      "max": [
        141.53125,
        93.0,
        8.315999031066895
      ],
      "min": [
        70.5625,
        0.0,
        0.07199859619140625
      ],
      "type": "VEC3"
    },
    {
      "bufferView": 1,
      "byteOffset": 57406512,
      "componentType": 5126,
      "count": 65532,
      "max": [
        0.9996752142906189,
        1.0,
        1.0
      ],
      "min": [
        -0.9992579817771912,
        -1.0,
        -0.9917823672294617
      ],
      "type": "VEC3"
    },
    {
      "bufferView": 2,
      "byteOffset": 37746752,
      "componentType": 5126,
      "count": 65532,
      "max": [
        1.0,
        1.0,
        0.9725490212440491,
        1.0
      ],
      "min": [
        0.027450980618596077,
        0.03921568766236305,
        0.04313725605607033,
        1.0
      ],
      "type": "VEC4"
    },
    {
      "bufferView": 0,
      "byteOffset": 22896972,
      "componentType": 5125,
      "count": 117867,
      "type": "SCALAR"
    },
    {
      "bufferView": 1,
      "byteOffset": 58192896,
      "componentType": 5126,
      "count": 65533,
      "max": [
        141.53125,
        63.0,
        5.3259992599487305
      ],
      "min": [
        2.15625,
        0.0,
        0.40799903869628906
      ],
      "type": "VEC3"
    },
    {
      "bufferView": 1,
      "byteOffset": 58979292,
      "componentType": 5126,
      "count": 65533,
      "max": [
        0.9961509704589844,
        1.0,
        1.0
      ],
      "min": [
        -0.9965035915374756,
        -1.0,
        -0.9857327938079834
      ],
      "type": "VEC3"
    },
    {
      "bufferView": 2,
      "byteOffset": 38795264,
      "componentType": 5126,
      "count": 65533,
      "max": [
        0.7843137383460999,
        0.7215686440467834,
        0.5764706134796143,
        1.0
      ],
      "min": [
        0.0941176488995552,
        0.06666667014360428,
        0.125490203499794,
        1.0
      ],
      "type": "VEC4"
    },
    {
      "bufferView": 0,
      "byteOffset": 23368440,
      "componentType": 5125,
      "count": 160884,
      "type": "SCALAR"
    },
    {
      "bufferView": 1,
      "byteOffset": 59765688,
      "componentType": 5126,
      "count": 65532,
      "max": [
        141.53125,
        93.0,
        8.195999145507813
      ],
      "min": [
        2.8125,
        0.0,
        0.29399871826171875
      ],
      "type": "VEC3"
    },
    {
      "bufferView": 1,
      "byteOffset": 60552072,
      "componentType": 5126,
      "count": 65532,
      "max": [
        0.9991364479064941,
        1.0,
        1.0
      ],
      "min": [
        -0.997002899646759,
        -1.0,
        -0.867106020450592
      ],
      "type": "VEC3"
    },
    {
      "bufferView": 2,
      "byteOffset": 39843792,
      "componentType": 5126,
      "count": 65532,
      "max": [
        0.9960784316062927,
        0.9882352948188782,
        0.9411764740943909,
        1.0
      ],
      "min": [
        0.07058823853731155,
        0.07058823853731155,
        0.04313725605607033,
        1.0
      ],
      "type": "VEC4"
    },
    {
      "bufferView": 0,
      "byteOffset": 24011976,
      "componentType": 5125,
      "count": 170988,
      "type": "SCALAR"
    },
    {
      "bufferView": 1,
      "byteOffset": 61338456,
      "componentType": 5126,
      "count": 65532,
      "max": [
        141.28125,
        93.0,
        7.9639997482299805
      ],
      "min": [
        0.0,
        0.0,
        0.23999977111816406
      ],
      "type": "VEC3"
    },
    {
      "bufferView": 1,
      "byteOffset": 62124840,
      "componentType": 5126,
      "count": 65532,
      "max": [
        0.9956097602844238,
        1.0,
        0.9999995231628418
      ],
      "min": [
        -0.9955447316169739,
        -1.0,
        -0.9504114389419556
      ],
      "type": "VEC3"
    },
    {
      "bufferView": 2,
      "byteOffset": 40892304,
      "componentType": 5126,
      "count": 65532,
      "max": [
        1.0,
        0.9960784316062927,
        0.9725490212440491,
        1.0
      ],
      "min": [
        0.08627451211214066,
        0.07058823853731155,
        0.07058823853731155,
        1.0
      ],
      "type": "VEC4"
    },
    {
      "bufferView": 0,
      "byteOffset": 24695928,
      "componentType": 5125,
      "count": 196257,
      "type": "SCALAR"
    },
    {
      "bufferView": 1,
      "byteOffset": 62911224,
      "componentType": 5126,
      "count": 65532,
      "max": [
        72.09375,
        93.0,
        7.887999534606934
      ],
      "min": [
        0.0,
        0.0,
        0.03399848937988281
      ],
      "type": "VEC3"
    },
    {
      "bufferView": 1,
      "byteOffset": 63697608,
      "componentType": 5126,
      "count": 65532,
      "max": [
        0.9958862662315369,
        1.0,
        1.0
      ],
      "min": [
        -0.9922134280204773,
        -1.0,
        0.0
      ],
      "type": "VEC3"
    },
    {
      "bufferView": 2,
      "byteOffset": 41940816,
      "componentType": 5126,
      "count": 65532,
      "max": [
        1.0,
        1.0,
        0.9960784316062927,
        1.0
      ],
      "min": [
        0.062745101749897,
        0.06666667014360428,
        0.062745101749897,
        1.0
      ],
      "type": "VEC4"
    },
    {
      "bufferView": 0,
      "byteOffset": 25480956,
      "componentType": 5125,
      "count": 199284,
      "type": "SCALAR"
    },
    {
      "bufferView": 1,
      "byteOffset": 64483992,
      "componentType": 5126,
      "count": 65532,
      "max": [
        72.25,
        52.75,
        4.073999404907227
      ],
      "min": [
        19.59375,
        14.5,
        0.5539989471435547
      ],
      "type": "VEC3"
    },
    {
      "bufferView": 1,
      "byteOffset": 65270376,
      "componentType": 5126,
      "count": 65532,
      "max": [
        0.9905163645744324,
        1.0,
        1.0
      ],
      "min": [
        -0.9839059114456177,
        -1.0,
        0.0
      ],
      "type": "VEC3"
    },
    {
      "bufferView": 2,
      "byteOffset": 42989328,
      "componentType": 5126,
      "count": 65532,
      "max": [
        0.7137255072593689,
        0.6980392336845398,
        0.5960784554481506,
        1.0
      ],
      "min": [
        0.09803921729326248,
        0.12156862765550613,
        0.1411764770746231,
        1.0
      ],
      "type": "VEC4"
    },
    {
      "bufferView": 0,
      "byteOffset": 26278092,
      "componentType": 5125,
      "count": 191616,
      "type": "SCALAR"
    },
    {
      "bufferView": 1,
      "byteOffset": 66056760,
      "componentType": 5126,
      "count": 65532,
      "max": [
        36.5625,
        79.75,
        7.921998977661133
      ],
      "min": [
        0.0,
        21.75,
        0.45800018310546875
      ],
      "type": "VEC3"
    },
    {
      "bufferView": 1,
      "byteOffset": 66843144,
      "componentType": 5126,
      "count": 65532,
      "max": [
        0.996569037437439,
        1.0,
        1.0
      ],
      "min": [
        -0.9920272827148438,
        -1.0,
        0.0
      ],
      "type": "VEC3"
    },
    {
      "bufferView": 2,
      "byteOffset": 44037840,
      "componentType": 5126,
      "count": 65532,
      "max": [
        1.0,
        1.0,
        0.9960784316062927,
        1.0
      ],
      "min": [
        0.05882352963089943,
        0.05098039284348488,
        0.05098039284348488,
        1.0
      ],
      "type": "VEC4"
    },
    {
      "bufferView": 0,
      "byteOffset": 27044556,
      "componentType": 5125,
      "count": 194661,
      "type": "SCALAR"
    },
    {
      "bufferView": 1,
      "byteOffset": 67629528,
      "componentType": 5126,
      "count": 65532,
      "max": [
        71.53125,
        93.0,
        7.933999061584473
      ],
      "min": [
        0.0,
        69.25,
        0.0
      ],
      "type": "VEC3"
    },
    {
      "bufferView": 1,
      "byteOffset": 68415912,
      "componentType": 5126,
      "count": 65532,
      "max": [
        0.9934610724449158,
        1.0,
        1.0
      ],
      "min": [
        -0.9953514337539673,
        -1.0,
        -0.9786524772644043
      ],
      "type": "VEC3"
    },
    {
      "bufferView": 2,
      "byteOffset": 45086352,
      "componentType": 5126,
      "count": 65532,
      "max": [
        1.0,
        1.0,
        0.9843137264251709,
        1.0
      ],
      "min": [
        0.09019608050584793,
        0.06666667014360428,
        0.09019608050584793,
        1.0
      ],
      "type": "VEC4"
    },
    {
      "bufferView": 0,
      "byteOffset": 27823200,
      "componentType": 5125,
      "count": 193413,
      "type": "SCALAR"
    },
    {
      "bufferView": 1,
      "byteOffset": 69202296,
      "componentType": 5126,
      "count": 65532,
      "max": [
        72.15625,
        80.25,
        5.217999458312988
      ],
      "min": [
        36.40625,
        0.0,
        0.5520000457763672
      ],
      "type": "VEC3"
    },
    {
      "bufferView": 1,
      "byteOffset": 69988680,
      "componentType": 5126,
      "count": 65532,
      "max": [
        0.9897927045822144,
        1.0,
        1.0
      ],
      "min": [
        -0.9915512800216675,
        -1.0,
        0.0
      ],
      "type": "VEC3"
    },
    {
      "bufferView": 2,
      "byteOffset": 46134864,
      "componentType": 5126,
      "count": 65532,
      "max": [
        0.9411764740943909,
        0.843137264251709,
        0.7843137383460999,
        1.0
      ],
      "min": [
        0.09803921729326248,
        0.10980392247438431,
        0.12941177189350128,
        1.0
      ],
      "type": "VEC4"
    },
    {
      "bufferView": 0,
      "byteOffset": 28596852,
      "componentType": 5125,
      "count": 178359,
      "type": "SCALAR"
    },
    {
      "bufferView": 1,
      "byteOffset": 70775064,
      "componentType": 5126,
      "count": 65534,
      "max": [
        71.75,
        54.0,
        3.8759994506835938
      ],
      "min": [
        23.90625,
        30.0,
        0.5319995880126953
      ],
      "type": "VEC3"
    },
    {
      "bufferView": 1,
      "byteOffset": 71561472,
      "componentType": 5126,
      "count": 65534,
      "max": [
        0.9967426657676697,
        1.0,
        1.0
      ],
      "min": [
        -0.997299313545227,
        -1.0,
        0.0
      ],
      "type": "VEC3"
    },
    {
      "bufferView": 2,
      "byteOffset": 47183376,
      "componentType": 5126,
      "count": 65534,
      "max": [
        0.7490196228027344,
        0.6980392336845398,
        0.5960784554481506,
        1.0
      ],
      "min": [
        0.0941176488995552,
        0.125490203499794,
        0.14901961386203766,
        1.0
      ],
      "type": "VEC4"
    },
    {
      "bufferView": 0,
      "byteOffset": 29310288,
      "componentType": 5125,
      "count": 176766,
      "type": "SCALAR"
    },
    {
      "bufferView": 1,
      "byteOffset": 72347880,
      "componentType": 5126,
      "count": 65532,
      "max": [
        38.8125,
        53.25,
        4.73599910736084
      ],
      "min": [
        0.0,
        30.0,
        0.43000030517578125
      ],
      "type": "VEC3"
    },
    {
      "bufferView": 1,
      "byteOffset": 73134264,
      "componentType": 5126,
      "count": 65532,
      "max": [
        0.9885490536689758,
        1.0,
        1.0
      ],
      "min": [
        -0.9922779202461243,
        -1.0,
        0.0
      ],
      "type": "VEC3"
    },
    {
      "bufferView": 2,
      "byteOffset": 48231920,
      "componentType": 5126,
      "count": 65532,
      "max": [
        0.529411792755127,
        0.6196078658103943,
        0.5254902243614197,
        1.0
      ],
      "min": [
        0.0941176488995552,
        0.1411764770746231,
        0.16470588743686676,
        1.0
      ],
      "type": "VEC4"
    },
    {
      "bufferView": 0,
      "byteOffset": 30017352,
      "componentType": 5125,
      "count": 179682,
      "type": "SCALAR"
    },
    {
      "bufferView": 1,
      "byteOffset": 73920648,
      "componentType": 5126,
      "count": 65532,
      "max": [
        37.28125,
        72.5,
        7.871999740600586
      ],
      "min": [
        0.0,
        46.5,
        1.7819995880126953
      ],
      "type": "VEC3"
    },
    {
      "bufferView": 1,
      "byteOffset": 74707032,
      "componentType": 5126,
      "count": 65532,
      "max": [
        0.9984186291694641,
        1.0,
        1.0
      ],
      "min": [
        -0.9977958798408508,
        -1.0,
        0.0
      ],
      "type": "VEC3"
    },
    {
      "bufferView": 2,
      "byteOffset": 49280432,
      "componentType": 5126,
      "count": 65532,
      "max": [
        1.0,
        0.9960784316062927,
        0.9882352948188782,
        1.0
      ],
      "min": [
        0.05098039284348488,
        0.0470588244497776,
        0.062745101749897,
        1.0
      ],
      "type": "VEC4"
    },
    {
      "bufferView": 0,
      "byteOffset": 30736080,
      "componentType": 5125,
      "count": 184674,
      "type": "SCALAR"
    },
    {
      "bufferView": 1,
      "byteOffset": 75493416,
      "componentType": 5126,
      "count": 65532,
      "max": [
        37.375,
        93.0,
        7.97599983215332
      ],
      "min": [
        0.0,
        61.5,
        2.8400001525878906
      ],
      "type": "VEC3"
    },
    {
      "bufferView": 1,
      "byteOffset": 76279800,
      "componentType": 5126,
      "count": 65532,
      "max": [
        0.998088538646698,
        1.0,
        1.0
      ],
      "min": [
        -0.998206615447998,
        -1.0,
        0.0
      ],
      "type": "VEC3"
    },
    {
      "bufferView": 2,
      "byteOffset": 50328944,
      "componentType": 5126,
      "count": 65532,
      "max": [
        1.0,
        0.9921568632125854,
        0.9686274528503418,
        1.0
      ],
      "min": [
        0.0470588244497776,
        0.05098039284348488,
        0.05882352963089943,
        1.0
      ],
      "type": "VEC4"
    },
    {
      "bufferView": 0,
      "byteOffset": 31474776,
      "componentType": 5125,
      "count": 179556,
      "type": "SCALAR"
    },
    {
      "bufferView": 1,
      "byteOffset": 77066184,
      "componentType": 5126,
      "count": 65532,
      "max": [
        64.40625,
        93.0,
        7.97599983215332
      ],
      "min": [
        18.0,
        71.0,
        0.0
      ],
      "type": "VEC3"
    },
    {
      "bufferView": 1,
      "byteOffset": 77852568,
      "componentType": 5126,
      "count": 65532,
      "max": [
        0.995593249797821,
        1.0,
        1.0
      ],
      "min": [
        -0.9972479343414307,
        -1.0,
        -0.5635393857955933
      ],
      "type": "VEC3"
    },
    {
      "bufferView": 2,
      "byteOffset": 51377456,
      "componentType": 5126,
      "count": 65532,
      "max": [
        1.0,
        1.0,
        0.9960784316062927,
        1.0
      ],
      "min": [
        0.03921568766236305,
        0.054901961237192154,
        0.08235294371843338,
        1.0
      ],
      "type": "VEC4"
    },
    {
      "bufferView": 0,
      "byteOffset": 32193000,
      "componentType": 5125,
      "count": 179955,
      "type": "SCALAR"
    },
    {
      "bufferView": 1,
      "byteOffset": 78638952,
      "componentType": 5126,
      "count": 65533,
      "max": [
        71.6875,
        93.0,
        7.487998962402344
      ],
      "min": [
        35.1875,
        0.0,
        1.2779998779296875
      ],
      "type": "VEC3"
    },
    {
      "bufferView": 1,
      "byteOffset": 79425348,
      "componentType": 5126,
      "count": 65533,
      "max": [
        0.9951618313789368,
        1.0,
        1.0
      ],
      "min": [
        -0.9886066913604736,
        -1.0,
        0.0
      ],
      "type": "VEC3"
    },
    {
      "bufferView": 2,
      "byteOffset": 52425968,
      "componentType": 5126,
      "count": 65533,
      "max": [
        0.9843137264251709,
        0.9333333373069763,
        0.9137254953384399,
        1.0
      ],
      "min": [
        0.0941176488995552,
        0.10588235408067703,
        0.10588235408067703,
        1.0
      ],
      "type": "VEC4"
    },
    {
      "bufferView": 0,
      "byteOffset": 32912820,
      "componentType": 5125,
      "count": 177525,
      "type": "SCALAR"
    },
    {
      "bufferView": 1,
      "byteOffset": 80211744,
      "componentType": 5126,
      "count": 65532,
      "max": [
        71.6875,
        42.0,
        4.275999069213867
      ],
      "min": [
        36.5625,
        8.5,
        0.5
      ],
      "type": "VEC3"
    },
    {
      "bufferView": 1,
      "byteOffset": 80998128,
      "componentType": 5126,
      "count": 65532,
      "max": [
        0.9943074584007263,
        1.0,
        0.9999980926513672
      ],
      "min": [
        -0.9987642168998718,
        -1.0,
        0.0
      ],
      "type": "VEC3"
    },
    {
      "bufferView": 2,
      "byteOffset": 53474496,
      "componentType": 5126,
      "count": 65532,
      "max": [
        0.8627451062202454,
        0.729411780834198,
        0.5372549295425415,
        1.0
      ],
      "min": [
        0.10196078568696976,
        0.10980392247438431,
        0.10588235408067703,
        1.0
      ],
      "type": "VEC4"
    },
    {
      "bufferView": 0,
      "byteOffset": 33622920,
      "componentType": 5125,
      "count": 148218,
      "type": "SCALAR"
    },
    {
      "bufferView": 1,
      "byteOffset": 81784512,
      "componentType": 5126,
      "count": 65532,
      "max": [
        71.75,
        52.5,
        4.073999404907227
      ],
      "min": [
        36.65625,
        30.25,
        0.5
      ],
      "type": "VEC3"
    },
    {
      "bufferView": 1,
      "byteOffset": 82570896,
      "componentType": 5126,
      "count": 65532,
      "max": [
        0.9972301721572876,
        1.0,
        1.0
      ],
      "min": [
        -0.9982447624206543,
        -1.0,
        0.0
      ],
      "type": "VEC3"
    },
    {
      "bufferView": 2,
      "byteOffset": 54523008,
      "componentType": 5126,
      "count": 65532,
      "max": [
        0.9725490212440491,
        0.8901960849761963,
        0.8156862854957581,
        1.0
      ],
      "min": [
        0.10196078568696976,
        0.12156862765550613,
        0.14901961386203766,
        1.0
      ],
      "type": "VEC4"
    },
    {
      "bufferView": 0,
      "byteOffset": 34215792,
      "componentType": 5125,
      "count": 148464,
      "type": "SCALAR"
    },
    {
      "bufferView": 1,
      "byteOffset": 83357280,
      "componentType": 5126,
      "count": 65533,
      "max": [
        46.875,
        52.75,
        3.793999671936035
      ],
      "min": [
        0.0,
        30.25,
        0.43000030517578125
      ],
      "type": "VEC3"
    },
    {
      "bufferView": 1,
      "byteOffset": 84143676,
      "componentType": 5126,
      "count": 65533,
      "max": [
        0.9986305832862854,
        1.0,
        1.0
      ],
      "min": [
        -0.9955442547798157,
        -1.0,
        0.0
      ],
      "type": "VEC3"
    },
    {
      "bufferView": 2,
      "byteOffset": 55571520,
      "componentType": 5126,
      "count": 65533,
      "max": [
        0.5411764979362488,
        0.6980392336845398,
        0.5568627715110779,
        1.0
      ],
      "min": [
        0.0941176488995552,
        0.15294118225574493,
        0.1882352977991104,
        1.0
      ],
      "type": "VEC4"
    },
    {
      "bufferView": 0,
      "byteOffset": 34809648,
      "componentType": 5125,
      "count": 150972,
      "type": "SCALAR"
    },
    {
      "bufferView": 1,
      "byteOffset": 84930072,
      "componentType": 5126,
      "count": 65532,
      "max": [
        37.125,
        72.0,
        7.783999443054199
      ],
      "min": [
        0.0,
        42.0,
        1.3020000457763672
      ],
      "type": "VEC3"
    },
    {
      "bufferView": 1,
      "byteOffset": 85716456,
      "componentType": 5126,
      "count": 65532,
      "max": [
        0.9984976053237915,
        1.0,
        1.0
      ],
      "min": [
        -0.996616005897522,
        -1.0,
        0.0
      ],
      "type": "VEC3"
    },
    {
      "bufferView": 2,
      "byteOffset": 56620048,
      "componentType": 5126,
      "count": 65532,
      "max": [
        1.0,
        0.9960784316062927,
        0.9764705896377563,
        1.0
      ],
      "min": [
        0.07450980693101883,
        0.07450980693101883,
        0.09019608050584793,
        1.0
      ],
      "type": "VEC4"
    },
    {
      "bufferView": 0,
      "byteOffset": 35413536,
      "componentType": 5125,
      "count": 154230,
      "type": "SCALAR"
    },
    {
      "bufferView": 1,
      "byteOffset": 86502840,
      "componentType": 5126,
      "count": 65532,
      "max": [
        28.0,
        93.0,
        7.923999786376953
      ],
      "min": [
        0.0,
        61.5,
        2.953998565673828
      ],
      "type": "VEC3"
    },
    {
      "bufferView": 1,
      "byteOffset": 87289224,
      "componentType": 5126,
      "count": 65532,
      "max": [
        0.9987662434577942,
        1.0,
        1.0
      ],
      "min": [
        -0.9948175549507141,
        -1.0,
        -0.9968150854110718
      ],
      "type": "VEC3"
    },
    {
      "bufferView": 2,
      "byteOffset": 57668560,
      "componentType": 5126,
      "count": 65532,
      "max": [
        1.0,
        1.0,
        0.9960784316062927,
        1.0
      ],
      "min": [
        0.05098039284348488,
        0.0470588244497776,
        0.03529411926865578,
        1.0
      ],
      "type": "VEC4"
    },
    {
      "bufferView": 0,
      "byteOffset": 36030456,
      "componentType": 5125,
      "count": 151797,
      "type": "SCALAR"
    },
    {
      "bufferView": 1,
      "byteOffset": 88075608,
      "componentType": 5126,
      "count": 65532,
      "max": [
        55.4375,
        93.0,
        7.933999061584473
      ],
      "min": [
        17.6875,
        71.25,
        0.07399940490722656
      ],
      "type": "VEC3"
    },
    {
      "bufferView": 1,
      "byteOffset": 88861992,
      "componentType": 5126,
      "count": 65532,
      "max": [
        0.9969305992126465,
        1.0,
        1.0
      ],
      "min": [
        -0.997397780418396,
        -1.0,
        -0.26088082790374756
      ],
      "type": "VEC3"
    },
    {
      "bufferView": 2,
      "byteOffset": 58717072,
      "componentType": 5126,
      "count": 65532,
      "max": [
        1.0,
        1.0,
        0.9960784316062927,
        1.0
      ],
      "min": [
        0.062745101749897,
        0.06666667014360428,
        0.07058823853731155,
        1.0
      ],
      "type": "VEC4"
    },
    {
      "bufferView": 0,
      "byteOffset": 36637644,
      "componentType": 5125,
      "count": 151026,
      "type": "SCALAR"
    },
    {
      "bufferView": 1,
      "byteOffset": 89648376,
      "componentType": 5126,
      "count": 65532,
      "max": [
        71.75,
        93.0,
        4.399999618530273
      ],
      "min": [
        45.03125,
        62.25,
        0.04599952697753906
      ],
      "type": "VEC3"
    },
    {
      "bufferView": 1,
      "byteOffset": 90434760,
      "componentType": 5126,
      "count": 65532,
      "max": [
        0.9993155598640442,
        1.0,
        1.0
      ],
      "min": [
        -0.9979581832885742,
        -1.0,
        0.0
      ],
      "type": "VEC3"
    },
    {
      "bufferView": 2,
      "byteOffset": 59765584,
      "componentType": 5126,
      "count": 65532,
      "max": [
        0.7176470756530762,
        0.686274528503418,
        0.545098066329956,
        1.0
      ],
      "min": [
        0.09803921729326248,
        0.11372549086809158,
        0.1568627506494522,
        1.0
      ],
      "type": "VEC4"
    },
    {
      "bufferView": 0,
      "byteOffset": 37241748,
      "componentType": 5125,
      "count": 149505,
      "type": "SCALAR"
    },
    {
      "bufferView": 1,
      "byteOffset": 91221144,
      "componentType": 5126,
      "count": 65534,
      "max": [
        71.59375,
        72.5,
        7.419999122619629
      ],
      "min": [
        35.59375,
        4.25,
        0.4799995422363281
      ],
      "type": "VEC3"
    },
    {
      "bufferView": 1,
      "byteOffset": 92007552,
      "componentType": 5126,
      "count": 65534,
      "max": [
        0.9969387650489807,
        1.0,
        1.0
      ],
      "min": [
        -0.997230052947998,
        -1.0,
        0.0
      ],
      "type": "VEC3"
    },
    {
      "bufferView": 2,
      "byteOffset": 60814096,
      "componentType": 5126,
      "count": 65534,
      "max": [
        0.9764705896377563,
        0.9450980424880981,
        0.9098039269447327,
        1.0
      ],
      "min": [
        0.0941176488995552,
        0.0941176488995552,
        0.09803921729326248,
        1.0
      ],
      "type": "VEC4"
    },
    {
      "bufferView": 0,
      "byteOffset": 37839768,
      "componentType": 5125,
      "count": 134865,
      "type": "SCALAR"
    },
    {
      "bufferView": 1,
      "byteOffset": 92793960,
      "componentType": 5126,
      "count": 65532,
      "max": [
        71.90625,
        52.5,
        4.073999404907227
      ],
      "min": [
        36.875,
        15.75,
        0.529998779296875
      ],
      "type": "VEC3"
    },
    {
      "bufferView": 1,
      "byteOffset": 93580344,
      "componentType": 5126,
      "count": 65532,
      "max": [
        0.9967536926269531,
        1.0,
        1.0
      ],
      "min": [
        -0.9981823563575745,
        -1.0,
        0.0
      ],
      "type": "VEC3"
    },
    {
      "bufferView": 2,
      "byteOffset": 61862640,
      "componentType": 5126,
      "count": 65532,
      "max": [
        0.686274528503418,
        0.6274510025978088,
        0.5333333611488342,
        1.0
      ],
      "min": [
        0.10196078568696976,
        0.125490203499794,
        0.1411764770746231,
        1.0
      ],
      "type": "VEC4"
    },
    {
      "bufferView": 0,
      "byteOffset": 38379228,
      "componentType": 5125,
      "count": 106791,
      "type": "SCALAR"
    },
    {
      "bufferView": 1,
      "byteOffset": 94366728,
      "componentType": 5126,
      "count": 65532,
      "max": [
        46.46875,
        62.0,
        5.119999885559082
      ],
      "min": [
        0.0,
        30.25,
        0.43000030517578125
      ],
      "type": "VEC3"
    },
    {
      "bufferView": 1,
      "byteOffset": 95153112,
      "componentType": 5126,
      "count": 65532,
      "max": [
        0.9955716729164124,
        1.0,
        0.9999979734420776
      ],
      "min": [
        -0.9950703382492065,
        -1.0,
        -0.8962882161140442
      ],
      "type": "VEC3"
    },
    {
      "bufferView": 2,
      "byteOffset": 62911152,
      "componentType": 5126,
      "count": 65532,
      "max": [
        0.8156862854957581,
        0.772549033164978,
        0.6666666865348816,
        1.0
      ],
      "min": [
        0.09019608050584793,
        0.11372549086809158,
        0.14509804546833038,
        1.0
      ],
      "type": "VEC4"
    },
    {
      "bufferView": 0,
      "byteOffset": 38806392,
      "componentType": 5125,
      "count": 108342,
      "type": "SCALAR"
    },
    {
      "bufferView": 1,
      "byteOffset": 95939496,
      "componentType": 5126,
      "count": 65532,
      "max": [
        36.40625,
        93.0,
        7.927999496459961
      ],
      "min": [
        0.0,
        52.0,
        2.529998779296875
      ],
      "type": "VEC3"
    },
    {
      "bufferView": 1,
      "byteOffset": 96725880,
      "componentType": 5126,
      "count": 65532,
      "max": [
        0.998580813407898,
        1.0,
        1.0
      ],
      "min": [
        -0.9969191551208496,
        -1.0,
        -0.9222632050514221
      ],
      "type": "VEC3"
    },
    {
      "bufferView": 2,
      "byteOffset": 63959664,
      "componentType": 5126,
      "count": 65532,
      "max": [
        1.0,
        1.0,
        0.9960784316062927,
        1.0
      ],
      "min": [
        0.05098039284348488,
        0.0470588244497776,
        0.05098039284348488,
        1.0
      ],
      "type": "VEC4"
    },
    {
      "bufferView": 0,
      "byteOffset": 39239760,
      "componentType": 5125,
      "count": 108468,
      "type": "SCALAR"
    },
    {
      "bufferView": 1,
      "byteOffset": 97512264,
      "componentType": 5126,
      "count": 65532,
      "max": [
        71.75,
        93.0,
        7.933999061584473
      ],
      "min": [
        18.3125,
        62.25,
        0.0
      ],
      "type": "VEC3"
    },
    {
      "bufferView": 1,
      "byteOffset": 98298648,
      "componentType": 5126,
      "count": 65532,
      "max": [
        0.9981775283813477,
        1.0,
        1.0
      ],
      "min": [
        -0.999233603477478,
        -1.0,
        0.0
      ],
      "type": "VEC3"
    },
    {
      "bufferView": 2,
      "byteOffset": 65008176,
      "componentType": 5126,
      "count": 65532,
      "max": [
        1.0,
        1.0,
        0.9960784316062927,
        1.0
      ],
      "min": [
        0.03921568766236305,
        0.054901961237192154,
        0.08627451211214066,
        1.0
      ],
      "type": "VEC4"
    },
    {
      "bufferView": 0,
      "byteOffset": 39673632,
      "componentType": 5125,
      "count": 106122,
      "type": "SCALAR"
    },
    {
      "bufferView": 1,
      "byteOffset": 99085032,
      "componentType": 5126,
      "count": 55146,
      "max": [
        87.84375,
        72.25,
        7.531999588012695
      ],
      "min": [
        35.84375,
        49.75,
        0.4799995422363281
      ],
      "type": "VEC3"
    },
    {
      "bufferView": 1,
      "byteOffset": 99746784,
      "componentType": 5126,
      "count": 55146,
      "max": [
        0.9988716244697571,
        1.0,
        0.9999680519104004
      ],
      "min": [
        -0.9991762042045593,
        -1.0,
        0.0
      ],
      "type": "VEC3"
    },
    {
      "bufferView": 2,
      "byteOffset": 66056688,
      "componentType": 5126,
      "count": 55146,
      "max": [
        0.9725490212440491,
        0.9098039269447327,
        0.8745098114013672,
        1.0
      ],
      "min": [
        0.0941176488995552,
        0.10588235408067703,
        0.09803921729326248,
        1.0
      ],
      "type": "VEC4"
    },
    {
      "bufferView": 0,
      "byteOffset": 40098120,
      "componentType": 5125,
      "count": 89265,
      "type": "SCALAR"
    }
  ],
  "asset": {
    "extras": {
      "author": "observaterre (https://sketchfab.com/observaterre)",
      "license": "CC-BY-4.0 (http://creativecommons.org/licenses/by/4.0/)",
      "source": "https://sketchfab.com/3d-models/rocky-reefs-745e5138f7f5467cb5b52c2c34f0d63f",
      "title": "Rocky reefs"
    },
    "generator": "Sketchfab-15.30.0",
    "version": "2.0"
  },
  "bufferViews": [
    {
      "buffer": 0,
      "byteLength": 40455180,
      "name": "floatBufferViews",
      "target": 34963
    },
    {
      "buffer": 0,
      "byteLength": 100408536,
      "byteOffset": 40455180,
      "byteStride": 12,
      "name": "floatBufferViews",
      "target": 34962
    },
    {
      "buffer": 0,
      "byteLength": 66939024,
      "byteOffset": 140863716,
      "byteStride": 16,
      "name": "floatBufferViews",
      "target": 34962
    }
  ],
  "buffers": [
    {
      "byteLength": 207802740,
      "uri": "scene.bin"
    }
  ],
  "materials": [
    {
      "doubleSided": true,
      "name": "Scene_-_Root",
      "pbrMetallicRoughness": {
        "metallicFactor": 0.0,
        "roughnessFactor": 0.6
      }
    }
  ],
  "meshes": [
    {
      "name": "Object_0",
      "primitives": [
        {
          "attributes": {
            "COLOR_0": 2,
            "NORMAL": 1,
            "POSITION": 0
          },
          "indices": 3,
          "material": 0,
          "mode": 4
        }
      ]
    },
    {
      "name": "Object_1",
      "primitives": [
        {
          "attributes": {
            "COLOR_0": 6,
            "NORMAL": 5,
            "POSITION": 4
          },
          "indices": 7,
          "material": 0,
          "mode": 4
        }
      ]
    },
    {
      "name": "Object_2",
      "primitives": [
        {
          "attributes": {
            "COLOR_0": 10,
            "NORMAL": 9,
            "POSITION": 8
          },
          "indices": 11,
          "material": 0,
          "mode": 4
        }
      ]
    },
    {
      "name": "Object_3",
      "primitives": [
        {
          "attributes": {
            "COLOR_0": 14,
            "NORMAL": 13,
            "POSITION": 12
          },
          "indices": 15,
          "material": 0,
          "mode": 4
        }
      ]
    },
    {
      "name": "Object_4",
      "primitives": [
        {
          "attributes": {
            "COLOR_0": 18,
            "NORMAL": 17,
            "POSITION": 16
          },
          "indices": 19,
          "material": 0,
          "mode": 4
        }
      ]
    },
    {
      "name": "Object_5",
      "primitives": [
        {
          "attributes": {
            "COLOR_0": 22,
            "NORMAL": 21,
            "POSITION": 20
          },
          "indices": 23,
          "material": 0,
          "mode": 4
        }
      ]
    },
    {
      "name": "Object_6",
      "primitives": [
        {
          "attributes": {
            "COLOR_0": 26,
            "NORMAL": 25,
            "POSITION": 24
          },
          "indices": 27,
          "material": 0,
          "mode": 4
        }
      ]
    },
    {
      "name": "Object_7",
      "primitives": [
        {
          "attributes": {
            "COLOR_0": 30,
            "NORMAL": 29,
            "POSITION": 28
          },
          "indices": 31,
          "material": 0,
          "mode": 4
        }
      ]
    },
    {
      "name": "Object_8",
      "primitives": [
        {
          "attributes": {
            "COLOR_0": 34,
            "NORMAL": 33,
            "POSITION": 32
          },
          "indices": 35,
          "material": 0,
          "mode": 4
        }
      ]
    },
    {
      "name": "Object_9",
      "primitives": [
        {
          "attributes": {
            "COLOR_0": 38,
            "NORMAL": 37,
            "POSITION": 36
          },
          "indices": 39,
          "material": 0,
          "mode": 4
        }
      ]
    },
    {
      "name": "Object_10",
      "primitives": [
        {
          "attributes": {
            "COLOR_0": 42,
            "NORMAL": 41,
            "POSITION": 40
          },
          "indices": 43,
          "material": 0,
          "mode": 4
        }
      ]
    },
    {
      "name": "Object_11",
      "primitives": [
        {
          "attributes": {
            "COLOR_0": 46,
            "NORMAL": 45,
            "POSITION": 44
          },
          "indices": 47,
          "material": 0,
          "mode": 4
        }
      ]
    },
    {
      "name": "Object_12",
      "primitives": [
        {
          "attributes": {
            "COLOR_0": 50,
            "NORMAL": 49,
            "POSITION": 48
          },
          "indices": 51,
          "material": 0,
          "mode": 4
        }
      ]
    },
    {
      "name": "Object_13",
      "primitives": [
        {
          "attributes": {
            "COLOR_0": 54,
            "NORMAL": 53,
            "POSITION": 52
          },
          "indices": 55,
          "material": 0,
          "mode": 4
        }
      ]
    },
    {
      "name": "Object_14",
      "primitives": [
        {
          "attributes": {
            "COLOR_0": 58,
            "NORMAL": 57,
            "POSITION": 56
          },
          "indices": 59,
          "material": 0,
          "mode": 4
        }
      ]
    },
    {
      "name": "Object_15",
      "primitives": [
        {
          "attributes": {
            "COLOR_0": 62,
            "NORMAL": 61,
            "POSITION": 60
          },
          "indices": 63,
          "material": 0,
          "mode": 4
        }
      ]
    },
    {
      "name": "Object_16",
      "primitives": [
        {
          "attributes": {
            "COLOR_0": 66,
            "NORMAL": 65,
            "POSITION": 64
          },
          "indices": 67,
          "material": 0,
          "mode": 4
        }
      ]
    },
    {
      "name": "Object_17",
      "primitives": [
        {
          "attributes": {
            "COLOR_0": 70,
            "NORMAL": 69,
            "POSITION": 68
          },
          "indices": 71,
          "material": 0,
          "mode": 4
        }
      ]
    },
    {
      "name": "Object_18",
      "primitives": [
        {
          "attributes": {
            "COLOR_0": 74,
            "NORMAL": 73,
            "POSITION": 72
          },
          "indices": 75,
          "material": 0,
          "mode": 4
        }
      ]
    },
    {
      "name": "Object_19",
      "primitives": [
        {
          "attributes": {
            "COLOR_0": 78,
            "NORMAL": 77,
            "POSITION": 76
          },
          "indices": 79,
          "material": 0,
          "mode": 4
        }
      ]
    },
    {
      "name": "Object_20",
      "primitives": [
        {
          "attributes": {
            "COLOR_0": 82,
            "NORMAL": 81,
            "POSITION": 80
          },
          "indices": 83,
          "material": 0,
          "mode": 4
        }
      ]
    },
    {
      "name": "Object_21",
      "primitives": [
        {
          "attributes": {
            "COLOR_0": 86,
            "NORMAL": 85,
            "POSITION": 84
          },
          "indices": 87,
          "material": 0,
          "mode": 4
        }
      ]
    },
    {
      "name": "Object_22",
      "primitives": [
        {
          "attributes": {
            "COLOR_0": 90,
            "NORMAL": 89,
            "POSITION": 88
          },
          "indices": 91,
          "material": 0,
          "mode": 4
        }
      ]
    },
    {
      "name": "Object_23",
      "primitives": [
        {
          "attributes": {
            "COLOR_0": 94,
            "NORMAL": 93,
            "POSITION": 92
          },
          "indices": 95,
          "material": 0,
          "mode": 4
        }
      ]
    },
    {
      "name": "Object_24",
      "primitives": [
        {
          "attributes": {
            "COLOR_0": 98,
            "NORMAL": 97,
            "POSITION": 96
          },
          "indices": 99,
          "material": 0,
          "mode": 4
        }
      ]
    },
    {
      "name": "Object_25",
      "primitives": [
        {
          "attributes": {
            "COLOR_0": 102,
            "NORMAL": 101,
            "POSITION": 100
          },
          "indices": 103,
          "material": 0,
          "mode": 4
        }
      ]
    },
    {
      "name": "Object_26",
      "primitives": [
        {
          "attributes": {
            "COLOR_0": 106,
            "NORMAL": 105,
            "POSITION": 104
          },
          "indices": 107,
          "material": 0,
          "mode": 4
        }
      ]
    },
    {
      "name": "Object_27",
      "primitives": [
        {
          "attributes": {
            "COLOR_0": 110,
            "NORMAL": 109,
            "POSITION": 108
          },
          "indices": 111,
          "material": 0,
          "mode": 4
        }
      ]
    },
    {
      "name": "Object_28",
      "primitives": [
        {
          "attributes": {
            "COLOR_0": 114,
            "NORMAL": 113,
            "POSITION": 112
          },
          "indices": 115,
          "material": 0,
          "mode": 4
        }
      ]
    },
    {
      "name": "Object_29",
      "primitives": [
        {
          "attributes": {
            "COLOR_0": 118,
            "NORMAL": 117,
            "POSITION": 116
          },
          "indices": 119,
          "material": 0,
          "mode": 4
        }
      ]
    },
    {
      "name": "Object_30",
      "primitives": [
        {
          "attributes": {
            "COLOR_0": 122,
            "NORMAL": 121,
            "POSITION": 120
          },
          "indices": 123,
          "material": 0,
          "mode": 4
        }
      ]
    },
    {
      "name": "Object_31",
      "primitives": [
        {
          "attributes": {
            "COLOR_0": 126,
            "NORMAL": 125,
            "POSITION": 124
          },
          "indices": 127,
          "material": 0,
          "mode": 4
        }
      ]
    },
    {
      "name": "Object_32",
      "primitives": [
        {
          "attributes": {
            "COLOR_0": 130,
            "NORMAL": 129,
            "POSITION": 128
          },
          "indices": 131,
          "material": 0,
          "mode": 4
        }
      ]
    },
    {
      "name": "Object_33",
      "primitives": [
        {
          "attributes": {
            "COLOR_0": 134,
            "NORMAL": 133,
            "POSITION": 132
          },
          "indices": 135,
          "material": 0,
          "mode": 4
        }
      ]
    },
    {
      "name": "Object_34",
      "primitives": [
        {
          "attributes": {
            "COLOR_0": 138,
            "NORMAL": 137,
            "POSITION": 136
          },
          "indices": 139,
          "material": 0,
          "mode": 4
        }
      ]
    },
    {
      "name": "Object_35",
      "primitives": [
        {
          "attributes": {
            "COLOR_0": 142,
            "NORMAL": 141,
            "POSITION": 140
          },
          "indices": 143,
          "material": 0,
          "mode": 4
        }
      ]
    },
    {
      "name": "Object_36",
      "primitives": [
        {
          "attributes": {
            "COLOR_0": 146,
            "NORMAL": 145,
            "POSITION": 144
          },
          "indices": 147,
          "material": 0,
          "mode": 4
        }
      ]
    },
    {
      "name": "Object_37",
      "primitives": [
        {
          "attributes": {
            "COLOR_0": 150,
            "NORMAL": 149,
            "POSITION": 148
          },
          "indices": 151,
          "material": 0,
          "mode": 4
        }
      ]
    },
    {
      "name": "Object_38",
      "primitives": [
        {
          "attributes": {
            "COLOR_0": 154,
            "NORMAL": 153,
            "POSITION": 152
          },
          "indices": 155,
          "material": 0,
          "mode": 4
        }
      ]
    },
    {
      "name": "Object_39",
      "primitives": [
        {
          "attributes": {
            "COLOR_0": 158,
            "NORMAL": 157,
            "POSITION": 156
          },
          "indices": 159,
          "material": 0,
          "mode": 4
        }
      ]
    },
    {
      "name": "Object_40",
      "primitives": [
        {
          "attributes": {
            "COLOR_0": 162,
            "NORMAL": 161,
            "POSITION": 160
          },
          "indices": 163,
          "material": 0,
          "mode": 4
        }
      ]
    },
    {
      "name": "Object_41",
      "primitives": [
        {
          "attributes": {
            "COLOR_0": 166,
            "NORMAL": 165,
            "POSITION": 164
          },
          "indices": 167,
          "material": 0,
          "mode": 4
        }
      ]
    },
    {
      "name": "Object_42",
      "primitives": [
        {
          "attributes": {
            "COLOR_0": 170,
            "NORMAL": 169,
            "POSITION": 168
          },
          "indices": 171,
          "material": 0,
          "mode": 4
        }
      ]
    },
    {
      "name": "Object_43",
      "primitives": [
        {
          "attributes": {
            "COLOR_0": 174,
            "NORMAL": 173,
            "POSITION": 172
          },
          "indices": 175,
          "material": 0,
          "mode": 4
        }
      ]
    },
    {
      "name": "Object_44",
      "primitives": [
        {
          "attributes": {
            "COLOR_0": 178,
            "NORMAL": 177,
            "POSITION": 176
          },
          "indices": 179,
          "material": 0,
          "mode": 4
        }
      ]
    },
    {
      "name": "Object_45",
      "primitives": [
        {
          "attributes": {
            "COLOR_0": 182,
            "NORMAL": 181,
            "POSITION": 180
          },
          "indices": 183,
          "material": 0,
          "mode": 4
        }
      ]
    },
    {
      "name": "Object_46",
      "primitives": [
        {
          "attributes": {
            "COLOR_0": 186,
            "NORMAL": 185,
            "POSITION": 184
          },
          "indices": 187,
          "material": 0,
          "mode": 4
        }
      ]
    },
    {
      "name": "Object_47",
      "primitives": [
        {
          "attributes": {
            "COLOR_0": 190,
            "NORMAL": 189,
            "POSITION": 188
          },
          "indices": 191,
          "material": 0,
          "mode": 4
        }
      ]
    },
    {
      "name": "Object_48",
      "primitives": [
        {
          "attributes": {
            "COLOR_0": 194,
            "NORMAL": 193,
            "POSITION": 192
          },
          "indices": 195,
          "material": 0,
          "mode": 4
        }
      ]
    },
    {
      "name": "Object_49",
      "primitives": [
        {
          "attributes": {
            "COLOR_0": 198,
            "NORMAL": 197,
            "POSITION": 196
          },
          "indices": 199,
          "material": 0,
          "mode": 4
        }
      ]
    },
    {
      "name": "Object_50",
      "primitives": [
        {
          "attributes": {
            "COLOR_0": 202,
            "NORMAL": 201,
            "POSITION": 200
          },
          "indices": 203,
          "material": 0,
          "mode": 4
        }
      ]
    },
    {
      "name": "Object_51",
      "primitives": [
        {
          "attributes": {
            "COLOR_0": 206,
            "NORMAL": 205,
            "POSITION": 204
          },
          "indices": 207,
          "material": 0,
          "mode": 4
        }
      ]
    },
    {
      "name": "Object_52",
      "primitives": [
        {
          "attributes": {
            "COLOR_0": 210,
            "NORMAL": 209,
            "POSITION": 208
          },
          "indices": 211,
          "material": 0,
          "mode": 4
        }
      ]
    },
    {
      "name": "Object_53",
      "primitives": [
        {
          "attributes": {
            "COLOR_0": 214,
            "NORMAL": 213,
            "POSITION": 212
          },
          "indices": 215,
          "material": 0,
          "mode": 4
        }
      ]
    },
    {
      "name": "Object_54",
      "primitives": [
        {
          "attributes": {
            "COLOR_0": 218,
            "NORMAL": 217,
            "POSITION": 216
          },
          "indices": 219,
          "material": 0,
          "mode": 4
        }
      ]
    },
    {
      "name": "Object_55",
      "primitives": [
        {
          "attributes": {
            "COLOR_0": 222,
            "NORMAL": 221,
            "POSITION": 220
          },
          "indices": 223,
          "material": 0,
          "mode": 4
        }
      ]
    },
    {
      "name": "Object_56",
      "primitives": [
        {
          "attributes": {
            "COLOR_0": 226,
            "NORMAL": 225,
            "POSITION": 224
          },
          "indices": 227,
          "material": 0,
          "mode": 4
        }
      ]
    },
    {
      "name": "Object_57",
      "primitives": [
        {
          "attributes": {
            "COLOR_0": 230,
            "NORMAL": 229,
            "POSITION": 228
          },
          "indices": 231,
          "material": 0,
          "mode": 4
        }
      ]
    },
    {
      "name": "Object_58",
      "primitives": [
        {
          "attributes": {
            "COLOR_0": 234,
            "NORMAL": 233,
            "POSITION": 232
          },
          "indices": 235,
          "material": 0,
          "mode": 4
        }
      ]
    },
    {
      "name": "Object_59",
      "primitives": [
        {
          "attributes": {
            "COLOR_0": 238,
            "NORMAL": 237,
            "POSITION": 236
          },
          "indices": 239,
          "material": 0,
          "mode": 4
        }
      ]
    },
    {
      "name": "Object_60",
      "primitives": [
        {
          "attributes": {
            "COLOR_0": 242,
            "NORMAL": 241,
            "POSITION": 240
          },
          "indices": 243,
          "material": 0,
          "mode": 4
        }
      ]
    },
    {
      "name": "Object_61",
      "primitives": [
        {
          "attributes": {
            "COLOR_0": 246,
            "NORMAL": 245,
            "POSITION": 244
          },
          "indices": 247,
          "material": 0,
          "mode": 4
        }
      ]
    },
    {
      "name": "Object_62",
      "primitives": [
        {
          "attributes": {
            "COLOR_0": 250,
            "NORMAL": 249,
            "POSITION": 248
          },
          "indices": 251,
          "material": 0,
          "mode": 4
        }
      ]
    },
    {
      "name": "Object_63",
      "primitives": [
        {
          "attributes": {
            "COLOR_0": 254,
            "NORMAL": 253,
            "POSITION": 252
          },
          "indices": 255,
          "material": 0,
          "mode": 4
        }
      ]
    }
  ],
  "nodes": [
    {
      "children": [
        1
      ],
      "matrix": [
        1.0,
        0.0,
        0.0,
        0.0,
        0.0,
        2.220446049250313e-16,
        -1.0,
        0.0,
        0.0,
        1.0,
        2.220446049250313e-16,
        0.0,
        0.0,
        0.0,
        0.0,
        1.0
      ],
      "name": "Sketchfab_model"
    },
    {
      "children": [
        2,
        3,
        4,
        5,
        6,
        7,
        8,
        9,
        10,
        11,
        12,
        13,
        14,
        15,
        16,
        17,
        18,
        19,
        20,
        21,
        22,
        23,
        24,
        25,
        26,
        27,
        28,
        29,
        30,
        31,
        32,
        33,
        34,
        35,
        36,
        37,
        38,
        39,
        40,
        41,
        42,
        43,
        44,
        45,
        46,
        47,
        48,
        49,
        50,
        51,
        52,
        53,
        54,
        55,
        56,
        57,
        58,
        59,
        60,
        61,
        62,
        63,
        64,
        65
      ],
      "matrix": [
        1.0,
        0.0,
        0.0,
        0.0,
        0.0,
        1.0,
        0.0,
        0.0,
        0.0,
        0.0,
        1.0,
        0.0,
        266451.4375,
        3916899.5,
        -11.687999725341797,
        1.0
      ],
      "name": "skfb_offset"
    },
    {
      "mesh": 0,
      "name": "Object_2"
    },
    {
      "mesh": 1,
      "name": "Object_3"
    },
    {
      "mesh": 2,
      "name": "Object_4"
    },
    {
      "mesh": 3,
      "name": "Object_5"
    },
    {
      "mesh": 4,
      "name": "Object_6"
    },
    {
      "mesh": 5,
      "name": "Object_7"
    },
    {
      "mesh": 6,
      "name": "Object_8"
    },
    {
      "mesh": 7,
      "name": "Object_9"
    },
    {
      "mesh": 8,
      "name": "Object_10"
    },
    {
      "mesh": 9,
      "name": "Object_11"
    },
    {
      "mesh": 10,
      "name": "Object_12"
    },
    {
      "mesh": 11,
      "name": "Object_13"
    },
    {
      "mesh": 12,
      "name": "Object_14"
    },
    {
      "mesh": 13,
      "name": "Object_15"
    },
    {
      "mesh": 14,
      "name": "Object_16"
    },
    {
      "mesh": 15,
      "name": "Object_17"
    },
    {
      "mesh": 16,
      "name": "Object_18"
    },
    {
      "mesh": 17,
      "name": "Object_19"
    },
    {
      "mesh": 18,
      "name": "Object_20"
    },
    {
      "mesh": 19,
      "name": "Object_21"
    },
    {
      "mesh": 20,
      "name": "Object_22"
    },
    {
      "mesh": 21,
      "name": "Object_23"
    },
    {
      "mesh": 22,
      "name": "Object_24"
    },
    {
      "mesh": 23,
      "name": "Object_25"
    },
    {
      "mesh": 24,
      "name": "Object_26"
    },
    {
      "mesh": 25,
      "name": "Object_27"
    },
    {
      "mesh": 26,
      "name": "Object_28"
    },
    {
      "mesh": 27,
      "name": "Object_29"
    },
    {
      "mesh": 28,
      "name": "Object_30"
    },
    {
      "mesh": 29,
      "name": "Object_31"
    },
    {
      "mesh": 30,
      "name": "Object_32"
    },
    {
      "mesh": 31,
      "name": "Object_33"
    },
    {
      "mesh": 32,
      "name": "Object_34"
    },
    {
      "mesh": 33,
      "name": "Object_35"
    },
    {
      "mesh": 34,
      "name": "Object_36"
    },
    {
      "mesh": 35,
      "name": "Object_37"
    },
    {
      "mesh": 36,
      "name": "Object_38"
    },
    {
      "mesh": 37,
      "name": "Object_39"
    },
    {
      "mesh": 38,
      "name": "Object_40"
    },
    {
      "mesh": 39,
      "name": "Object_41"
    },
    {
      "mesh": 40,
      "name": "Object_42"
    },
    {
      "mesh": 41,
      "name": "Object_43"
    },
    {
      "mesh": 42,
      "name": "Object_44"
    },
    {
      "mesh": 43,
      "name": "Object_45"
    },
    {
      "mesh": 44,
      "name": "Object_46"
    },
    {
      "mesh": 45,
      "name": "Object_47"
    },
    {
      "mesh": 46,
      "name": "Object_48"
    },
    {
      "mesh": 47,
      "name": "Object_49"
    },
    {
      "mesh": 48,
      "name": "Object_50"
    },
    {
      "mesh": 49,
      "name": "Object_51"
    },
    {
      "mesh": 50,
      "name": "Object_52"
    },
    {
      "mesh": 51,
      "name": "Object_53"
    },
    {
      "mesh": 52,
      "name": "Object_54"
    },
    {
      "mesh": 53,
      "name": "Object_55"
    },
    {
      "mesh": 54,
      "name": "Object_56"
    },
    {
      "mesh": 55,
      "name": "Object_57"
    },
    {
      "mesh": 56,
      "name": "Object_58"
    },
    {
      "mesh": 57,
      "name": "Object_59"
    },
    {
      "mesh": 58,
      "name": "Object_60"
    },
    {
      "mesh": 59,
      "name": "Object_61"
    },
    {
      "mesh": 60,
      "name": "Object_62"
    },
    {
      "mesh": 61,
      "name": "Object_63"
    },
    {
      "mesh": 62,
      "name": "Object_64"
    },
    {
      "mesh": 63,
      "name": "Object_65"
    }
  ],
  "scene": 0,
  "scenes": [
    {
      "name": "Sketchfab_Scene",
      "nodes": [
        0
      ]
    }
  ]
}
